HIERARCHY
ROOT hip
{
	OFFSET 0.000000 0.000000 0.000000 
	CHANNELS 6 Xposition Yposition Zposition Xrotation Zrotation Yrotation
	JOINT abdomen
	{
		OFFSET 0.000000 3.402643 0.000000 
		CHANNELS 3 Xrotation Zrotation Yrotation
		JOINT chest
		{
			OFFSET 0.000000 8.438565 -0.680529 
			CHANNELS 3 Xrotation Zrotation Yrotation
			JOINT neck
			{
				OFFSET 0.000000 10.207942 -0.272212 
				CHANNELS 3 Xrotation Zrotation Yrotation
				JOINT head
				{
					OFFSET 0.000000 3.130431 0.000000 
					CHANNELS 3 Xrotation Zrotation Yrotation
					End Site
					{
						OFFSET 0.000000 3.130435 0.000000 
					}
				}
			}
			JOINT lCollar
			{
				OFFSET 3.470700 6.669187 -0.816635 
				CHANNELS 3 Yrotation Zrotation Xrotation
				JOINT lShldr
				{
					OFFSET 3.198488 0.000000 0.000000 
					CHANNELS 3 Zrotation Yrotation Xrotation
					JOINT lForeArm
					{
						OFFSET 10.139888 0.000000 0.000000 
						CHANNELS 3 Yrotation Zrotation Xrotation
						JOINT lHand
						{
							OFFSET 8.370511 0.000000 0.000000 
							CHANNELS 3 Zrotation Yrotation Xrotation
							End Site
							{
								OFFSET 4.083176 0.000000 0.000000 
							}
						}
					}
				}
			}
			JOINT rCollar
			{
				OFFSET -3.470700 6.669187 -0.816635 
				CHANNELS 3 Yrotation Zrotation Xrotation
				JOINT rShldr
				{
					OFFSET -3.198488 0.000000 0.000000 
					CHANNELS 3 Zrotation Yrotation Xrotation
					JOINT rForeArm
					{
						OFFSET -10.139888 0.000000 0.000000 
						CHANNELS 3 Yrotation Zrotation Xrotation
						JOINT rHand
						{
							OFFSET -8.370511 0.000000 0.000000 
							CHANNELS 3 Zrotation Yrotation Xrotation
							End Site
							{
								OFFSET -4.083176 0.000000 0.000000 
							}
						}
					}
				}
			}
		}
	}
	JOINT lThigh
	{
		OFFSET 5.308129 -1.633274 1.361059 
		CHANNELS 3 Xrotation Zrotation Yrotation
		JOINT lShin
		{
			OFFSET -2.041588 -20.007561 0.000000 
			CHANNELS 3 Xrotation Zrotation Yrotation
			JOINT lFoot
			{
				OFFSET 0.000000 -19.190928 -1.224953 
				CHANNELS 3 Xrotation Yrotation Zrotation
				End Site
				{
					OFFSET 0.000000 -2.449906 4.627600 
				}
			}
		}
	}
	JOINT rThigh
	{
		OFFSET -5.308129 -1.633274 1.361059 
		CHANNELS 3 Xrotation Zrotation Yrotation
		JOINT rShin
		{
			OFFSET 2.041588 -20.007561 0.000000 
			CHANNELS 3 Xrotation Zrotation Yrotation
			JOINT rFoot
			{
				OFFSET 0.000000 -19.190928 -1.224953 
				CHANNELS 3 Xrotation Yrotation Zrotation
				End Site
				{
					OFFSET 0.000000 -2.449906 4.627600 
				}
			}
		}
	}
}
MOTION
Frames: 16
Frame Time: 0.033333
2.785713 45.428162 -81.406090 9.306642 -4.921875 36.883926 24.755859 0.947266 1.084146 -18.632811 -2.333984 0.839446 -15.068358 -1.035156 -19.326347 7.236329 3.886719 -19.305977 -1.093750 8.339870 0.301317 -84.023438 -30.957029 62.768414 -66.074219 -3.300781 -41.981857 11.835938 2.197266 0.234751 -4.394531 0.791016 -0.126953 69.287109 30.595707 6.313566 73.818359 3.242188 -40.449772 -30.380859 -1.220703 0.497839 -20.063469 15.032104 18.146242 41.544422 -0.901222 -2.471198 -21.319202 11.627187 -0.784904 -47.259247 -23.871914 -12.545162 50.145523 -0.195332 2.751283 -5.125483 2.325208 4.974975 
2.981745 45.441277 -81.337280 10.195313 -4.599609 35.156246 24.218752 0.449219 0.918045 -18.632813 -2.861328 1.015138 -15.273437 -0.986328 -18.789232 7.392578 3.515625 -18.769531 -0.751953 8.505860 0.252462 -83.720703 -31.513670 64.389427 -67.441414 -3.330078 -42.500000 12.031250 2.529297 0.391058 -4.580078 0.273441 -0.185591 70.566406 31.669924 6.596925 72.861328 3.310547 -40.459549 -30.351561 -0.673828 0.204963 -19.323988 14.117956 19.167891 40.789230 -0.966199 -2.784734 -21.638323 12.888585 0.010005 -48.280502 -24.579464 -13.801573 51.762306 -0.222483 2.625347 -6.004833 1.436378 5.362545 
3.210330 45.460594 -81.110832 10.722657 -4.052734 33.007122 23.867188 0.117188 0.800801 -18.984375 -3.222656 1.015076 -15.156250 -1.064453 -17.734556 7.763672 3.349610 -17.704508 -0.595703 8.505875 0.398946 -83.466797 -31.699219 65.600334 -69.296875 -3.330078 -44.472092 13.085938 1.992188 0.332372 -4.404297 -0.283203 -0.039014 71.699219 31.835939 6.762966 73.066406 3.291016 -39.658764 -30.234375 -1.660156 0.673828 -18.131014 13.295194 19.668339 39.900349 -0.764532 -2.514453 -22.008562 14.323531 0.990771 -48.797646 -25.272400 -17.732220 55.053761 -0.214844 2.949258 -9.065333 -6.956157 3.894949 
3.451555 45.445450 -80.659264 10.703125 -3.535156 30.908205 23.525391 0.351563 0.693419 -19.169922 -3.759766 0.839203 -14.892577 -1.455078 -16.289310 8.291017 3.349610 -16.278727 -0.068359 8.515625 0.341797 -83.662109 -31.796873 66.039772 -71.406250 -3.427734 -46.904297 14.316406 2.109375 0.419922 -4.238281 -0.986328 -0.087723 72.656250 32.343750 6.992188 73.994141 3.349610 -39.423832 -30.517576 -2.988281 1.425272 -16.288462 12.284301 19.303244 39.409626 -0.780279 -2.825363 -22.459452 17.502951 2.204024 -48.451576 -25.901634 -23.007523 60.167984 -0.596862 3.137322 -12.478409 -16.920504 0.951654 
3.654862 45.371761 -79.967079 10.195313 -2.988281 28.466797 23.154299 0.742188 0.634891 -19.355469 -4.091797 0.663366 -14.140625 -1.816406 -14.472655 8.642579 3.710938 -14.686869 0.117188 8.505859 0.291524 -84.023438 -31.933594 66.049522 -72.968750 -3.408203 -48.349026 14.833986 1.806641 0.224919 -4.404297 -1.533203 0.039324 73.027344 33.642578 7.720256 75.029297 3.349610 -38.457027 -30.673830 -4.326172 2.187500 -14.418862 12.032613 19.289768 39.548771 -0.891346 -2.753324 -22.658808 20.569273 3.475339 -46.229553 -25.272123 -28.698713 63.683071 -1.279000 3.425205 -14.223665 -22.628643 -1.004578 
3.780900 45.226406 -79.092316 9.306641 -2.646484 25.106974 23.007813 1.132813 0.605662 -19.521482 -4.443359 0.487525 -12.851562 -2.001953 -12.510106 8.818359 3.515625 -12.744142 0.292969 8.505859 0.273438 -84.023438 -32.060547 65.336617 -75.078125 -3.564453 -49.970093 15.869141 1.103516 0.136719 -4.921875 -1.689453 0.019819 73.076172 35.742188 7.984221 76.406250 3.291016 -38.232983 -30.136717 -5.595703 2.879907 -12.447788 12.833790 21.071442 41.305767 -0.790713 -2.584408 -22.146816 22.449432 4.306499 -43.222633 -22.939497 -32.081615 64.212067 -0.766847 3.057127 -16.888073 -25.000984 -3.023898 
3.792943 45.063759 -78.096649 8.251954 -2.646484 21.063999 22.636719 1.621094 0.781526 -19.863279 -4.628906 0.467962 -11.376953 -1.767578 -10.078425 9.160157 3.183594 -10.458442 0.117188 8.505859 0.291524 -84.228516 -32.421875 64.096329 -77.021484 -3.525390 -49.618538 15.507813 -0.537109 -0.351652 -5.449218 -1.689453 0.010054 72.861328 38.906246 8.531523 78.291016 3.261719 -37.754463 -29.619139 -6.796876 3.416813 -11.960647 15.460000 23.878883 46.096050 -0.921570 -2.883085 -19.117708 24.056055 3.579573 -40.584702 -19.285324 -31.900522 62.957863 -0.742325 3.163469 -20.617031 -24.862778 -4.446899 
3.742385 44.916016 -77.093483 7.187500 -2.988281 16.327618 22.490234 2.353516 0.830072 -20.390625 -4.970703 0.282357 -9.228516 -0.986328 -7.509934 9.150390 2.636719 -7.636718 -0.244141 8.681640 0.361328 -84.658203 -32.792969 61.635342 -79.570313 -3.427734 -49.804104 15.498048 -2.705078 -0.850070 -5.800781 -2.207031 -0.058218 72.949219 42.421875 9.215572 80.898438 3.212891 -36.377495 -29.951172 -7.578125 3.885431 -14.412525 19.660101 25.185772 55.514229 0.063152 -3.268701 -12.107176 26.454929 0.851951 -38.774498 -15.043463 -28.145117 62.444157 -0.761471 3.294806 -22.641275 -24.332798 -5.195955 
3.729984 44.819672 -76.131439 6.152344 -3.173828 11.425783 22.509766 3.076172 0.928258 -21.269529 -5.488281 0.096722 -6.718750 -0.332031 -4.570369 8.808594 2.109375 -4.843750 -0.771484 9.208984 0.428125 -85.781250 -33.671871 58.158649 -82.333984 -3.427734 -50.224026 15.000000 -3.720703 -1.016257 -6.152343 -3.486328 0.137314 72.734375 46.240238 9.206274 84.677734 3.164063 -35.752495 -29.794922 -7.958985 3.895132 -19.686380 23.882694 23.241499 66.441750 0.717383 -3.840675 -1.803291 28.942936 -3.826128 -37.534271 -11.353338 -24.389912 62.245926 -0.595782 3.237553 -23.363848 -23.393023 -4.855080 
3.829073 44.779251 -75.203148 5.449219 -3.173828 6.298288 22.519531 3.574219 0.547484 -22.158203 -6.035157 -0.440480 -4.228516 0.185547 -1.249968 8.291016 1.416016 -1.523437 -1.113281 9.570343 0.320642 -87.001953 -35.322266 55.131065 -85.566406 -3.349609 -50.399818 14.345702 -5.722656 -1.484375 -7.197265 -4.716797 0.108225 71.904297 51.357422 8.523252 89.384766 3.125000 -35.850143 -28.994143 -8.291017 4.140625 -25.625051 26.708887 20.276007 75.557434 1.228187 -3.719748 3.140662 27.046572 -6.339662 -36.333553 -8.571706 -21.346947 61.918636 -0.723747 3.265626 -24.422390 -22.193325 -5.307116 
4.068390 44.817291 -74.294998 4.902344 -2.832031 1.034674 22.529297 3.798828 -0.126306 -23.027342 -5.859375 -1.163106 -2.050781 -0.283203 2.509766 7.402343 1.074219 1.962891 -1.455078 9.570313 0.380849 -88.281250 -37.890625 52.445179 -88.544922 -3.564453 -49.716190 15.000000 -8.232422 -2.061945 -9.062500 -6.552734 0.186661 70.263672 57.294922 6.668373 94.531250 3.183594 -35.000542 -28.212891 -8.320313 3.895071 -30.933090 27.805130 18.002787 81.020821 1.759262 -3.714948 2.270244 20.980732 -5.740123 -35.152340 -6.883079 -18.027317 61.936100 -0.752876 3.297886 -25.116053 -20.463957 -4.670730 
4.408347 44.919598 -73.352524 4.570313 -2.128906 -4.072628 22.373049 4.111328 -0.946566 -23.730469 -5.859375 -2.050781 -0.566406 -1.132815 6.298625 7.050781 0.712891 5.644531 -1.298828 9.570313 0.351553 -89.453125 -42.314453 50.540298 -92.294922 -3.271484 -46.991634 14.882812 -9.218750 -2.392578 -11.650391 -7.685547 0.186853 65.439453 64.140625 1.034179 100.234375 3.203125 -34.756149 -27.597654 -7.988281 3.611926 -35.329063 28.735962 16.883818 82.205742 1.397399 -3.746627 1.003965 15.670688 -5.489668 -34.282230 -5.984538 -15.107586 61.543480 -0.585699 3.212544 -25.752884 -18.126791 -3.876622 
4.853712 45.082481 -72.372124 4.746094 -1.425781 -9.316405 22.021484 4.462891 -1.932834 -24.609373 -5.312500 -2.930592 0.058594 -2.314453 9.960546 6.875000 0.185547 9.316439 -0.957031 9.726562 0.468750 -91.689453 -48.095703 49.875546 -94.628906 -3.251953 -42.782650 14.423830 -10.244141 -2.570095 -14.414063 -8.886719 0.235884 55.136715 70.244141 -11.845702 105.966797 3.203125 -33.242737 -26.972658 -7.470703 3.349610 -37.780628 29.410360 17.884085 78.738472 1.065758 -4.004454 -1.105173 13.820446 -4.977902 -32.827106 -5.984730 -12.831789 60.303951 -0.723681 3.062960 -26.230888 -15.120440 -2.513592 
5.395306 45.248463 -71.328880 4.902344 -0.361328 -14.794984 21.835939 4.746094 -2.772629 -25.126953 -4.794922 -3.828941 -0.517578 -3.330078 13.603515 7.246094 -0.156250 13.007786 0.058594 10.624999 0.457184 -94.931641 -55.712891 51.007553 -96.572266 -3.251953 -38.368587 14.082031 -10.605469 -2.550624 -17.500000 -9.423828 0.294567 34.814453 74.160156 -36.367561 111.367188 3.154297 -30.712889 -27.714844 -7.675781 3.445963 -38.344742 30.665701 20.693018 72.243393 0.715652 -3.942031 -3.510041 13.328929 -4.398416 -32.085636 -7.166542 -11.845881 59.603073 -0.556525 3.116020 -26.142004 -11.178868 -0.467329 
6.034440 45.360432 -70.228889 5.273437 0.673828 -20.419922 21.835938 5.214844 -3.535156 -25.654295 -4.082031 -4.717492 -1.767578 -3.974609 17.421877 7.939454 -0.517578 16.552647 1.103516 11.875000 0.408147 -100.537109 -64.541016 55.107422 -97.578125 -3.066406 -32.782681 14.414064 -10.410157 -2.550593 -20.244141 -9.990234 0.371094 10.615234 73.515625 -67.968750 115.937500 3.027344 -28.564972 -29.667969 -8.241986 4.061199 -37.449585 31.686207 23.545673 63.313858 0.218794 -3.700145 -4.906072 13.674421 -3.878672 -31.977177 -9.148320 -11.081096 59.115917 -0.557902 3.075060 -25.566151 -6.420774 1.957549 
6.746429 45.365799 -69.074272 5.625000 1.933594 -26.015295 22.187498 5.605469 -4.160156 -26.542967 -3.046875 -5.605989 -3.349609 -4.296875 20.800291 7.929688 -1.220703 19.882605 1.914063 12.949220 0.564218 -110.693359 -74.003906 64.609749 -97.138672 -2.910156 -28.642082 13.935547 -8.437500 -1.993620 -22.617186 -10.761719 0.402214 -0.019531 68.291016 -87.978516 118.564445 2.929688 -28.476561 -31.777342 -7.568360 4.149104 -35.742271 32.978622 26.010712 53.850090 -0.401907 -3.552017 -4.718731 12.522144 -4.013237 -32.583759 -11.384562 -10.787077 58.929016 -0.566179 3.101250 -24.885248 -1.279442 4.679118 
